<svg width="32" height="32" viewBox="0 0 32 32" fill="none" xmlns="http://www.w3.org/2000/svg">
  <!-- Nepal flag colors: crimson and blue -->
  <rect width="32" height="32" rx="6" fill="url(#gradient)"/>
  
  <!-- Heart shape representing food and care -->
  <path d="M16 26.5C16 26.5 7 20.5 7 14C7 11.5 8.5 9.5 11 9.5C12.5 9.5 14 10.5 15 11.5C15.5 12 16 12.5 16 12.5C16 12.5 16.5 12 17 11.5C18 10.5 19.5 9.5 21 9.5C23.5 9.5 25 11.5 25 14C25 20.5 16 26.5 16 26.5Z" fill="white"/>
  
  <!-- Rice/grain symbol -->
  <ellipse cx="16" cy="17" rx="3.5" ry="5" fill="#DC2626" opacity="0.7"/>
  
  <!-- Gradient definition -->
  <defs>
    <linearGradient id="gradient" x1="0" y1="0" x2="32" y2="32" gradientUnits="userSpaceOnUse">
      <stop offset="0%" stop-color="#DC2626"/>
      <stop offset="50%" stop-color="#1E40AF"/>
      <stop offset="100%" stop-color="#DC2626"/>
    </linearGradient>
  </defs>
</svg>
