<svg width="200" height="60" viewBox="0 0 200 60" fill="none" xmlns="http://www.w3.org/2000/svg">
  <!-- Heart with rice bowl icon -->
  <g transform="translate(10, 10)">
    <path d="M20 38C20 38 8 30 8 20C8 16 10.5 14 13.5 14C15.5 14 17 15 18.5 16.5C19 17 19.5 17.5 19.5 17.5C19.5 17.5 20 17 20.5 16.5C22 15 23.5 14 25.5 14C28.5 14 31 16 31 20C31 30 20 38 20 38Z" fill="#DC2626"/>
    <ellipse cx="20" cy="23" rx="4" ry="6" fill="white" opacity="0.8"/>
  </g>
  
  <!-- Text -->
  <text x="50" y="28" font-family="Poppins, sans-serif" font-size="20" font-weight="700" fill="#DC2626">
    FeedHope
  </text>
  <text x="50" y="44" font-family="Poppins, sans-serif" font-size="14" font-weight="500" fill="#1E40AF">
    Nepal
  </text>
</svg>
